<?xml version="1.0" encoding="utf-8"?>
<svg width="800px" height="800px" viewBox="0 0 24 24" fill="none" xmlns="http://www.w3.org/2000/svg">
<path d="M20.7972 11.7821C21.0676 11.51 21.0676 11.0687 20.7972 10.7966L15.0664 5.02821C14.48 4.43789 13.991 3.94564 13.5506 3.60741C13.0857 3.2504 12.5946 3 12 3C11.4054 3 10.9143 3.2504 10.4494 3.60741C10.009 3.94564 9.51998 4.43789 8.93355 5.02821L3.20277 10.7966C2.93241 11.0687 2.93241 11.51 3.20277 11.7821C3.47314 12.0542 3.91148 12.0542 4.18184 11.7821L4.57845 11.3829V14.4332C4.57845 17.4273 6.62594 20.0276 9.52196 20.7114C11.1519 21.0962 12.8481 21.0962 14.478 20.7114C17.374 20.0276 19.4215 17.4273 19.4215 14.4332V11.3829L19.8182 11.7821C20.0885 12.0542 20.5269 12.0542 20.7972 11.7821Z" fill="#000000"/>
</svg>